<?xml version="1.0" encoding="utf-8"?>
<!-- Generator: Adobe Illustrator 23.0.1, SVG Export Plug-In . SVG Version: 6.00 Build 0)  -->
<svg version="1.1" id="Livello_1" xmlns="http://www.w3.org/2000/svg" xmlns:xlink="http://www.w3.org/1999/xlink" x="0px" y="0px"
	 viewBox="0 0 300 39" style="enable-background:new 0 0 300 39;" xml:space="preserve">
<style type="text/css">
	.st0{fill-rule:evenodd;clip-rule:evenodd;fill:#FFFFFF;}
	.st1{fill:#FFFFFF;}
</style>
<g>
	<path class="st0" d="M24.7,21.6c-0.2-0.3-0.7-0.4-1-0.2l-3.3,2.4v-6.2l2.7-2c0.3-0.2,0.4-0.7,0.2-1c-0.2-0.3-0.7-0.4-1-0.2
		l-1.9,1.4v-3.9c0-0.4-0.3-0.7-0.7-0.7c-0.4,0-0.7,0.3-0.7,0.7v8.2l-3.2-2.4c-0.3-0.2-0.8-0.2-1,0.2c-0.2,0.3-0.2,0.8,0.2,1l4.1,3
		v13.6c0,0.4,0.3,0.7,0.7,0.7c0.4,0,0.7-0.3,0.7-0.7v-9.8l4.2-3C24.9,22.4,25,22,24.7,21.6 M38.4,24.8c0-2.2-0.8-5.7-2-8.5
		c-2-4.7-4-5.7-5.3-5.7c-0.6,0-1.2,0.2-1.7,0.5c0.4,1.1,0.7,2.3,1,3.5c0.5,2.3,0.8,4.3,0.8,5.9c0,4.2-2,7.9-5,10.1
		c1.2,1.1,2.6,1.9,4.2,2v2.8c0,0.4,0.3,0.7,0.7,0.7c0.4,0,0.7-0.3,0.7-0.7v-2.8C35.5,32.3,38.4,28.9,38.4,24.8 M8.3,20.6
		c0-1.6,0.3-3.6,0.8-5.9c0.3-1.2,0.6-2.4,1-3.5c-0.6-0.4-1.2-0.5-1.7-0.5c-2.5,0-4.3,3.1-5.3,5.7c-1.2,2.8-2,6.3-2,8.5
		c0,4.1,2.9,7.5,6.6,7.9v2.8c0,0.4,0.3,0.7,0.7,0.7c0.4,0,0.7-0.3,0.7-0.7v-2.8c1.6-0.2,3-0.9,4.2-2C10.2,28.5,8.3,24.7,8.3,20.6
		 M29.6,20.6c0-2.2-0.6-5.3-1.5-8.3c0-0.1-0.1-0.3-0.1-0.4v-0.1c0-0.1-0.1-0.2-0.1-0.3v-0.1c0-0.1-0.1-0.2-0.1-0.3s0-0.1-0.1-0.2
		c0-0.1-0.1-0.2-0.1-0.3s0-0.1-0.1-0.2c0-0.1-0.1-0.2-0.1-0.3s0-0.1-0.1-0.2c0-0.1-0.1-0.2-0.1-0.3s0-0.1-0.1-0.2
		c0-0.1-0.1-0.2-0.1-0.3c0,0,0-0.1-0.1-0.1c0.1,0,0-0.1,0-0.2c-0.9-2.2-2-4-3-5.4C22.5,1.8,21.1,1,19.7,1s-2.8,0.8-4.1,2.4
		c-1.1,1.3-2.1,3.1-3,5.4c-0.1,0.1-0.1,0.3-0.2,0.4c0,0,0,0.1-0.1,0.1c0,0.1-0.1,0.2-0.1,0.3s0,0.1-0.1,0.2c0,0.1-0.1,0.2-0.1,0.3
		s0,0.1-0.1,0.2c0,0.1-0.1,0.2-0.1,0.3s0,0.1-0.1,0.2c0,0.1-0.1,0.2-0.1,0.3s0,0.1-0.1,0.2c0,0.1-0.1,0.2-0.1,0.3v0.1
		c0,0.1-0.1,0.2-0.1,0.3v0.1c0,0.1-0.1,0.3-0.1,0.4c-0.9,3-1.5,6.2-1.5,8.3c0,3.7,1.8,7,4.4,9c0.4,0.3,0.8,0.5,1.2,0.8l0,0
		c0.1,0.1,0.2,0.1,0.3,0.2l0,0c0.1,0.1,0.2,0.1,0.3,0.1l0,0c0.1,0,0.2,0.1,0.3,0.1l0,0c0.1,0,0.2,0.1,0.3,0.1l0,0
		c0.1,0,0.2,0.1,0.3,0.1c0,0,0,0,0.1,0s0.2,0.1,0.3,0.1l0,0c0.1,0,0.2,0,0.3,0.1c0,0,0,0,0.1,0s0.2,0,0.3,0.1l0,0l0,0v-8.9l-3.8-2.8
		c-0.3-0.2-0.5-0.6-0.6-1s0-0.8,0.3-1.1c0.2-0.3,0.6-0.5,1-0.6s0.8,0,1.1,0.3l2.1,1.5v-6.7c0-0.8,0.7-1.5,1.5-1.5s1.5,0.7,1.5,1.5
		v2.4l0.7-0.5c0.7-0.5,1.6-0.3,2,0.3c0.2,0.3,0.3,0.7,0.3,1.1c-0.1,0.4-0.3,0.7-0.6,1L21.2,18v4.4l2.1-1.6c0.7-0.5,1.6-0.3,2,0.3
		c0.2,0.3,0.3,0.7,0.3,1.1c-0.1,0.4-0.3,0.7-0.6,1L21.1,26v5.1l0,0l0,0c0.1,0,0.2,0,0.3-0.1c0,0,0,0,0.1,0s0.2,0,0.3-0.1l0,0
		c0.1,0,0.2-0.1,0.3-0.1c0,0,0,0,0.1,0s0.2-0.1,0.3-0.1l0,0c0.1,0,0.2-0.1,0.3-0.1l0,0c0.1,0,0.2-0.1,0.3-0.1l0,0
		c0.1,0,0.2-0.1,0.3-0.1l0,0c0.1,0,0.2-0.1,0.3-0.2l0,0c0.4-0.2,0.8-0.5,1.2-0.8C27.9,27.6,29.6,24.3,29.6,20.6"/>
	<path class="st1" d="M290.3,21.7c5,0.6,8.7,1.4,8.7,6.5c0,4.8-3.4,6.6-7.8,6.6h-1.8c-4.3,0-7-2.1-7.6-5.8c-0.1-0.4,0.1-0.7,0.6-0.7
		h1.7c0.4,0,0.7,0.2,0.8,0.6c0.5,2.1,1.9,3.1,4.6,3.1h1.8c2.9,0,4.9-0.9,4.9-3.9c0-3.1-2.3-3.5-5.8-3.9c-5.2-0.5-8.2-1.6-8.2-6.5
		c0-4.4,3-6.2,7.5-6.2h1.4c4.3,0,7.2,2.1,7.4,6.2c0,0.5-0.1,0.7-0.6,0.7h-1.5c-0.5,0-0.7-0.2-0.8-0.7c-0.2-2.4-1.7-3.5-4.5-3.5h-1.2
		c-2.9,0-4.7,0.9-4.7,3.6C285,20.7,286.9,21.3,290.3,21.7L290.3,21.7z M274.9,21.8v-2.1c0-3.7-2.1-5.5-4.9-5.5h-1.6
		c-3.3,0-5.2,1.8-5.2,5.5v2.1H274.9L274.9,21.8z M270,11.6c4,0,7.9,3,7.9,8.3V23c0,0.9-0.5,1.4-1.5,1.4h-13.2V27
		c0,3.3,1.9,5.2,5.2,5.2h1.6c3,0,3.9-1.1,5.2-2.7c0.3-0.4,0.5-0.5,1-0.1l0.9,0.6c0.5,0.3,0.5,0.6,0.2,1c-1.6,2-3.2,4-7.2,4h-1.6
		c-4.9,0-8.2-3.2-8.2-8.2v-6.7c0-5.3,3.3-8.3,8.2-8.3h1.5V11.6z M253.2,21.8v-2.1c0-3.7-2.1-5.5-4.9-5.5h-1.6
		c-3.3,0-5.2,1.8-5.2,5.5v2.1H253.2L253.2,21.8z M248.2,11.6c4,0,7.9,3,7.9,8.3V23c0,0.9-0.5,1.4-1.5,1.4h-13.2V27
		c0,3.3,1.9,5.2,5.2,5.2h1.6c3,0,3.9-1.1,5.2-2.7c0.3-0.4,0.5-0.5,1-0.1l0.9,0.6c0.5,0.3,0.5,0.6,0.2,1c-1.6,2-3.2,4-7.2,4h-1.6
		c-4.9,0-8.2-3.2-8.2-8.2v-6.7c0-5.3,3.3-8.3,8.2-8.3h1.5V11.6z M234.8,14.3c-0.2,0.4-0.5,0.5-0.9,0.4c-0.7-0.2-1.4-0.4-2.4-0.4H231
		c-3.5,0-5.5,2.1-6.1,3.2v16.4c0,0.5-0.2,0.7-0.7,0.7h-1.5c-0.5,0-0.7-0.2-0.7-0.7V12.4c0-0.5,0.2-0.7,0.7-0.7h1.5
		c0.5,0,0.7,0.2,0.7,0.7v2.7c1.6-2.5,4.1-3.6,7.2-3.6c1,0,2.1,0.1,3,0.5c0.5,0.2,0.6,0.5,0.4,0.9L234.8,14.3z M216.7,14.5H213v13
		c0,3.2,0.8,4.4,3.7,4.5c0.5,0,0.6,0.3,0.6,0.7V34c0,0.4-0.3,0.7-0.8,0.7c-4.8-0.1-6.4-2.4-6.4-7.2v-13h-2.4c-0.5,0-0.7-0.2-0.7-0.7
		v-1.3c0-0.5,0.2-0.7,0.7-0.7h2.4V9c0-0.5,0.2-0.7,0.7-0.7h1.5c0.5,0,0.7,0.2,0.7,0.7v2.7h3.6c0.5,0,0.7,0.2,0.7,0.7v1.4
		C217.3,14.3,217.1,14.5,216.7,14.5L216.7,14.5z M182,11.6c5.3,0,7.1,2.9,7.1,8.1V34c0,0.5-0.2,0.7-0.7,0.7h-1.5
		c-0.5,0-0.7-0.2-0.7-0.7V19.7c0-3.6-0.9-5.3-4.5-5.3H181c-3.5,0-5.5,2.1-6.1,3.2V34c0,0.5-0.2,0.7-0.7,0.7h-1.5
		c-0.5,0-0.7-0.2-0.7-0.7V12.4c0-0.5,0.2-0.7,0.7-0.7h1.5c0.5,0,0.7,0.2,0.7,0.7v2.7c1.5-2.3,4-3.6,6.8-3.6L182,11.6L182,11.6z
		 M164.2,26.7v-6.9c0-3.7-1.9-5.5-5.1-5.5h-2c-3.3,0-5.2,1.8-5.2,5.5v6.9c0,3.5,1.9,5.3,5.2,5.3h2C162.3,32.1,164.2,30.2,164.2,26.7
		L164.2,26.7z M159.1,11.6c4.8,0,8,3,8,8.3v6.6c0,5.2-3.2,8.4-8,8.4h-2c-4.9,0-8.1-3.2-8.1-8.4v-6.6c0-5.3,3.2-8.3,8.1-8.3
		L159.1,11.6L159.1,11.6z M122.7,21.7c5,0.6,8.7,1.4,8.7,6.5c0,4.8-3.4,6.6-7.8,6.6h-1.8c-4.3,0-7-2.1-7.6-5.8
		c-0.1-0.4,0.1-0.7,0.6-0.7h1.7c0.4,0,0.7,0.2,0.8,0.6c0.5,2.1,1.9,3.1,4.6,3.1h1.8c2.9,0,4.9-0.9,4.9-3.9c0-3.1-2.3-3.5-5.8-3.9
		c-5.2-0.5-8.2-1.6-8.2-6.5c0-4.4,3-6.2,7.5-6.2h1.4c4.3,0,7.2,2.1,7.4,6.2c0,0.5-0.1,0.7-0.6,0.7h-1.5c-0.5,0-0.7-0.2-0.8-0.7
		c-0.2-2.4-1.7-3.5-4.5-3.5h-1.2c-2.9,0-4.7,0.9-4.7,3.6C117.4,20.7,119.3,21.3,122.7,21.7L122.7,21.7z M93.4,12.5
		c-0.1-0.4,0-0.7,0.5-0.7h1.7c0.5,0,0.6,0.3,0.7,0.7l5.8,18.6l5.7-18.6c0.1-0.4,0.3-0.7,0.8-0.7h1.7c0.5,0,0.6,0.3,0.5,0.7l-7,21.4
		c-0.2,0.5-0.4,0.7-1,0.7h-1.5c-0.5,0-0.7-0.2-0.9-0.7L93.4,12.5z M86.8,21.8v-2.1c0-3.7-2.1-5.5-4.9-5.5h-1.6
		c-3.3,0-5.2,1.8-5.2,5.5v2.1H86.8z M81.9,11.6c4,0,7.9,3,7.9,8.3V23c0,0.9-0.5,1.4-1.5,1.4H75V27c0,3.3,1.9,5.2,5.2,5.2h1.6
		c3,0,3.9-1.1,5.2-2.7c0.3-0.4,0.5-0.5,1-0.1l0.9,0.6c0.5,0.3,0.5,0.6,0.2,1c-1.6,2-3.2,4-7.2,4h-1.6c-4.9,0-8.2-3.2-8.2-8.2v-6.7
		c0-5.3,3.3-8.3,8.2-8.3h1.6V11.6z M59.2,32.1c3.3,0,5.1-1.9,5.1-5.3v-6.9c0-3.7-1.9-5.5-5.1-5.5h-2.1c-3.3,0-5.2,1.8-5.2,5.5v6.9
		c0,3.5,1.9,5.3,5.2,5.3H59.2L59.2,32.1z M66.6,2.6c0.5,0,0.7,0.2,0.7,0.7v30.6c0,0.5-0.2,0.7-0.7,0.7H65c-0.4,0-0.7-0.2-0.7-0.7
		v-2.5c-0.9,2-2.6,3.4-5.8,3.4H57c-4.8,0-8-3.2-8-8.4v-6.6c0-5.3,3.2-8.3,8-8.3h1.5c3.1,0,4.9,1.2,5.8,3.2V3.3
		c0-0.5,0.3-0.7,0.7-0.7H66.6L66.6,2.6z"/>
</g>
</svg>
