<?xml version="1.0" encoding="utf-8"?>
<!-- Generator: Adobe Illustrator 23.0.1, SVG Export Plug-In . SVG Version: 6.00 Build 0)  -->
<svg version="1.1" id="Livello_1" xmlns="http://www.w3.org/2000/svg" xmlns:xlink="http://www.w3.org/1999/xlink" x="0px" y="0px"
	 viewBox="0 0 300 283" style="enable-background:new 0 0 300 283;" xml:space="preserve">
<style type="text/css">
	.st0{fill-rule:evenodd;clip-rule:evenodd;fill:#07B162;}
</style>
<path class="st0" d="M190.3,165.5c-1.9-2.6-5.5-3.2-8.2-1.3l-26.3,19.1v-49.7l21.8-15.8c2.6-1.9,3.2-5.6,1.3-8.2
	c-1.9-2.6-5.5-3.2-8.2-1.3l-15,10.9V88.3c0-3.3-2.6-5.9-5.8-5.9c-3.2,0-5.8,2.6-5.8,5.9v65.3l-25.9-18.8c-2.6-1.9-6.3-1.3-8.2,1.3
	c-1.9,2.6-1.3,6.3,1.3,8.2l32.7,23.8v108.1c0,3.3,2.6,5.9,5.8,5.9c3.2,0,5.8-2.6,5.8-5.9v-78.4l33.2-24.1
	C191.6,171.9,192.2,168.2,190.3,165.5 M299,190.9c0-17.5-6.5-45.3-15.8-67.8c-15.6-37.5-31.7-45.4-42.5-45.4
	c-4.7,0-9.4,1.5-13.9,4.4c3,9.1,5.6,18.5,7.8,27.9c4.2,18,6.4,34.3,6.4,47c0,33.4-15.7,62.9-39.6,80.6c9.2,9,20.9,14.8,33.4,16.2
	v22.5c0,3.3,2.6,5.9,5.8,5.9c3.2,0,5.8-2.6,5.8-5.9v-22.5C275.9,250.5,299,223.6,299,190.9 M59.1,157c0-12.7,2.2-29,6.4-47
	c2.2-9.4,4.8-18.8,7.8-27.9c-4.5-2.9-9.2-4.4-13.9-4.4c-19.6,0-33.9,24.7-42.5,45.4C7.5,145.6,1,173.4,1,190.9
	c0,32.7,23.1,59.6,52.5,62.8v22.5c0,3.3,2.6,5.9,5.8,5.9c3.2,0,5.8-2.6,5.8-5.9v-22.5c12.5-1.4,24.2-7.1,33.4-16.2
	C74.8,219.9,59.1,190.4,59.1,157 M229.3,157c0-17.4-4.7-42.3-12.1-66.5c-0.3-1.1-0.7-2.2-1.1-3.4c-0.1-0.3-0.2-0.6-0.3-0.8
	c-0.3-0.8-0.5-1.7-0.8-2.5c-0.1-0.4-0.2-0.7-0.4-1.1c-0.2-0.7-0.5-1.5-0.8-2.2c-0.1-0.4-0.3-0.8-0.4-1.2c-0.2-0.7-0.5-1.4-0.7-2.1
	c-0.1-0.4-0.3-0.8-0.4-1.3c-0.2-0.7-0.5-1.4-0.7-2c-0.2-0.4-0.3-0.8-0.5-1.3c-0.3-0.7-0.5-1.4-0.8-2c-0.2-0.4-0.3-0.8-0.5-1.2
	c-0.3-0.7-0.6-1.4-0.8-2.1c-0.1-0.3-0.3-0.7-0.4-1c-0.4-1.1-0.8-2.1-1.3-3.1c-7.4-17.9-15.6-32.3-24.2-42.7C172.4,7.5,161.3,1,150,1
	c-11.3,0-22.4,6.5-33.1,19.4c-8.7,10.5-16.8,24.8-24.2,42.7c-0.4,1-0.9,2.1-1.3,3.1c-0.1,0.3-0.3,0.7-0.4,1
	c-0.3,0.7-0.6,1.4-0.8,2.2c-0.2,0.4-0.3,0.8-0.5,1.2c-0.3,0.7-0.5,1.3-0.8,2c-0.2,0.4-0.3,0.8-0.5,1.3c-0.2,0.7-0.5,1.3-0.7,2
	c-0.2,0.4-0.3,0.8-0.5,1.3c-0.2,0.7-0.5,1.4-0.7,2.1c-0.1,0.4-0.3,0.8-0.4,1.2c-0.3,0.7-0.5,1.5-0.7,2.2c-0.1,0.4-0.2,0.7-0.4,1.1
	c-0.3,0.8-0.5,1.7-0.8,2.5c-0.1,0.3-0.2,0.6-0.3,0.8c-0.4,1.1-0.7,2.2-1.1,3.4c-7.4,24.2-12.1,49.1-12.1,66.5
	c0,29.8,14.1,56.1,35.5,71.6c3.1,2.3,6.4,4.3,9.9,6.1l0,0c0.8,0.4,1.7,0.8,2.5,1.2c0,0,0.1,0,0.1,0.1c0.9,0.4,1.7,0.8,2.6,1.2
	c0,0,0,0,0.1,0c0.8,0.3,1.7,0.7,2.5,1c0.1,0,0.2,0.1,0.3,0.1c0.9,0.3,1.7,0.6,2.6,0.9c0,0,0.1,0,0.1,0c0.8,0.3,1.6,0.5,2.5,0.8
	c0.1,0,0.3,0.1,0.4,0.1c0.9,0.2,1.7,0.5,2.6,0.7c0.1,0,0.1,0,0.2,0c0.8,0.2,1.6,0.4,2.4,0.6c0.2,0,0.4,0.1,0.5,0.1
	c0.9,0.2,1.7,0.3,2.6,0.5c0.1,0,0.1,0,0.2,0c0,0,0,0,0.1,0v-70.8l-30.3-22c-2.5-1.8-4.2-4.6-4.7-7.7c-0.5-3.1,0.2-6.2,2-8.8
	c1.8-2.6,4.5-4.2,7.6-4.7c3.1-0.5,6.2,0.2,8.7,2.1l16.6,12.1V88.3c0-6.5,5.2-11.8,11.7-11.8c6.4,0,11.7,5.3,11.7,11.8v19.2l5.7-4.1
	c5.2-3.8,12.6-2.6,16.3,2.7c1.8,2.6,2.6,5.7,2,8.8c-0.5,3.1-2.2,5.8-4.7,7.7l-19.4,14.1v35.2l17.1-12.4c5.2-3.8,12.6-2.6,16.3,2.7
	c1.8,2.6,2.6,5.7,2,8.8c-0.5,3.1-2.2,5.8-4.7,7.7l-30.7,22.3v41.1c0,0,0.1,0,0.1,0c0.1,0,0.1,0,0.2,0c0.9-0.1,1.8-0.3,2.6-0.5
	c0.2,0,0.4-0.1,0.5-0.1c0.8-0.2,1.6-0.4,2.4-0.6c0.1,0,0.1,0,0.2,0c0.9-0.2,1.7-0.5,2.6-0.7c0.1,0,0.3-0.1,0.4-0.1
	c0.8-0.2,1.6-0.5,2.5-0.8c0,0,0.1,0,0.1,0c0.9-0.3,1.7-0.6,2.6-0.9c0.1,0,0.2-0.1,0.3-0.1c0.8-0.3,1.7-0.6,2.5-1c0,0,0,0,0.1,0
	c0.9-0.4,1.7-0.8,2.6-1.2c0,0,0.1,0,0.1-0.1c0.8-0.4,1.7-0.8,2.5-1.2l0,0c3.4-1.8,6.7-3.8,9.9-6.1
	C215.2,213.1,229.3,186.8,229.3,157"/>
</svg>
